#!OML:ASF E:\Style6\Style6.ASF
:FULLY-SPECIFIED
:DEGREES
3575
root 0.213981 17.2418 -0.931149 29.5599 39.7628 -6.2705
lowerback 33.0985 -2.26989 6.46328
upperback 15.2996 -0.590053 -6.31412
thorax -0.446157 0.618236 -9.9695
lowerneck -1.21589 -0.247836 7.48473
upperneck -11.4128 -0.224866 -1.31352
head -3.52489 -0.340973 -1.74357
rclavicle 2.22639e-014 1.53064e-014
rhumerus 48.9155 4.86065 -76.5793
rradius 106.377
rwrist 0.355759
rhand -12.4525 0.489416
rfingers 7.12502
rthumb 13.6209 -29.045
lclavicle 2.22639e-014 1.53064e-014
lhumerus 45.4506 -8.53828 49.8242
lradius 117.833
lwrist 10.2596
lhand -9.08517 25.2371
lfingers 7.12502
lthumb 16.8644 54.5248
rfemur -58.3639 -24.3164 42.337
rtibia 40.5377
rfoot -15.2916 -18.4611
rtoes -0.683691
lfemur -67.5211 -13.808 -0.458441
ltibia 41.1434
lfoot -6.39967 -10.4824
ltoes -21.2018
3576
root 0.22938 17.244 -0.929627 29.002 39.9624 -6.58245
lowerback 33.5041 -2.31058 6.88162
upperback 15.3361 -0.494151 -6.31745
thorax -0.532307 0.690678 -10.229
lowerneck -1.32378 -0.309169 7.36008
upperneck -11.3824 -0.310408 -1.21263
head -3.49561 -0.381439 -1.68391
rclavicle -1.4551e-013 -4.47266e-014
rhumerus 47.3436 5.29057 -75.9383
rradius 106.312
rwrist 0.259177
rhand -11.5257 0.934984
rfingers 7.12502
rthumb 14.5141 -28.5373
lclavicle -1.4551e-013 -4.47266e-014
lhumerus 46.8627 -8.29481 50.4029
lradius 118.34
lwrist 8.51635
lhand -11.4666 24.6661
lfingers 7.12502
lthumb 14.5709 54.1344
rfemur -57.802 -24.3693 42.269
rtibia 40.4333
rfoot -15.4319 -18.5383
rtoes -0.728336
lfemur -67.2523 -14.2663 -0.0288409
ltibia 41.1807
lfoot -6.37481 -10.1074
ltoes -21.3746
3577
root 0.21485 17.2476 -0.927425 29.1614 39.9741 -6.70829
lowerback 33.3274 -2.03892 6.65941
upperback 15.2785 -0.236319 -6.21058
thorax -0.474492 0.79707 -10.0722
lowerneck -1.44431 -0.351824 7.2417
upperneck -11.4225 -0.378541 -1.20636
head -3.48858 -0.411187 -1.65851
rclavicle 2.22639e-014 9.79014e-014
rhumerus 45.861 5.78533 -75.5127
rradius 106.698
rwrist 0.617913
rhand -10.5145 1.3577
rfingers 7.12502
rthumb 15.4882 -28.0419
lclavicle 2.22639e-014 9.79014e-014
lhumerus 48.3278 -7.89389 51.0464
lradius 118.615
lwrist 6.50504
lhand -13.357 23.9796
lfingers 7.12502
lthumb 12.7491 53.5703
rfemur -57.9343 -24.0173 42.3862
rtibia 40.3413
rfoot -15.4133 -18.8034
rtoes -1.06898
lfemur -67.4712 -13.9838 0.0823841
ltibia 41.1961
lfoot -6.38972 -10.2922
ltoes -20.7689
3578
root 0.212913 17.2456 -0.927706 29.4171 40.1985 -6.72009
lowerback 33.0802 -1.93904 6.62234
upperback 15.2365 -0.133416 -6.04904
thorax -0.403527 0.836329 -9.90799
lowerneck -1.53694 -0.289367 7.15194
upperneck -11.5066 -0.31984 -1.42469
head -3.4983 -0.370577 -1.71783
rclavicle 5.32743e-014 7.95139e-014
rhumerus 44.5128 6.21187 -75.2852
rradius 107.508
rwrist 1.12442
rhand -8.99306 1.46645
rfingers 7.12502
rthumb 16.9531 -27.8137
lclavicle 5.32743e-014 7.95139e-014
lhumerus 49.5988 -7.32721 51.7336
lradius 118.706
lwrist 4.38712
lhand -14.6704 23.5379
lfingers 7.12502
lthumb 11.4826 53.2034
rfemur -58.1934 -23.9708 42.5769
rtibia 40.246
rfoot -15.2644 -18.9995
rtoes -1.64333
lfemur -67.8334 -13.9988 0.271408
ltibia 41.2208
lfoot -6.36566 -10.3939
ltoes -20.6952
3579
root 0.219581 17.2449 -0.926184 29.4965 40.4105 -6.71702
lowerback 32.9962 -1.95195 6.60815
upperback 15.2585 -0.145878 -5.87391
thorax -0.344982 0.824242 -9.70476
lowerneck -1.76659 -0.111505 6.64757
upperneck -11.5273 -0.0989024 -1.43125
head -3.44512 -0.236003 -1.63358
rclavicle 7.07673e-014 -3.19049e-014
rhumerus 43.3785 6.97332 -75.0191
rradius 108.747
rwrist 0.648467
rhand -8.58693 1.21621
rfingers 7.12502
rthumb 17.344 -28.0299
lclavicle 7.07673e-014 -3.19049e-014
lhumerus 50.5445 -6.44232 52.3823
lradius 118.616
lwrist 2.30922
lhand -15.929 23.256
lfingers 7.12502
lthumb 10.2687 52.9853
rfemur -58.2317 -24.0283 42.6417
rtibia 40.19
rfoot -15.358 -19.0268
rtoes -0.920287
lfemur -68.0113 -14.2124 0.467263
ltibia 41.2484
lfoot -6.34962 -10.3157
ltoes -20.3754
3580
root 0.241875 17.2467 -0.92183 29.1086 40.3602 -6.93667
lowerback 33.2301 -1.94137 6.66978
upperback 15.3378 -0.092426 -5.76199
thorax -0.328072 0.854528 -9.63078
lowerneck -1.96547 0.021408 6.18626
upperneck -11.6658 0.0706158 -1.4075
head -3.44331 -0.131888 -1.54708
rclavicle -2.34566e-014 1.28713e-013
rhumerus 42.3339 8.04644 -74.7178
rradius 110.329
rwrist -1.04122
rhand -9.6461 0.913191
rfingers 7.12502
rthumb 16.3244 -28.4197
lclavicle -2.34566e-014 1.28713e-013
lhumerus 51.3733 -5.55214 52.8669
lradius 118.362
lwrist 0.614551
lhand -17.0943 23.2975
lfingers 7.12502
lthumb 9.14433 53.0792
rfemur -57.8319 -24.0598 42.5403
rtibia 40.1544
rfoot -15.5433 -18.8572
rtoes 0.629083
lfemur -67.7714 -14.6042 0.808239
ltibia 41.3073
lfoot -6.35227 -9.79702
ltoes -20.5889
3581
root 0.23482 17.2425 -0.922586 29.3343 40.2492 -7.06917
lowerback 33.0842 -1.68879 6.34625
upperback 15.2339 0.115627 -5.54324
thorax -0.343769 0.91761 -9.28016
lowerneck -2.03461 0.0953254 6.06779
upperneck -11.8678 0.14404 -1.68191
head -3.4982 -0.0815118 -1.62139
rclavicle -1.55052e-014 -4.68635e-014
rhumerus 41.3281 9.02093 -74.6585
rradius 112.192
rwrist -2.87596
rhand -10.3409 0.682572
rfingers 7.12502
rthumb 15.6554 -28.704
lclavicle -1.55052e-014 -4.68635e-014
lhumerus 51.9512 -4.95675 53.2175
lradius 118.061
lwrist -0.449008
lhand -18.1091 23.6326
lfingers 7.12502
lthumb 8.16502 53.4548
rfemur -58.1303 -23.8189 42.7724
rtibia 40.1349
rfoot -15.4006 -18.8734
rtoes -0.143751
lfemur -68.0766 -14.3255 0.93877
ltibia 41.3895
lfoot -6.4091 -9.80709
ltoes -20.6725
3582
root 0.243275 17.2352 -0.927538 29.5031 40.3662 -6.97462
lowerback 33.0915 -1.65262 6.30199
upperback 15.18 0.153579 -5.37305
thorax -0.393104 0.920404 -9.0825
lowerneck -2.08491 0.000321261 5.94483
upperneck -11.9686 0.0049962 -1.73
head -3.52942 -0.145868 -1.61314
rclavicle 2.8625e-014 1.36167e-014
rhumerus 40.4593 9.71393 -74.8309
rradius 114.202
rwrist -4.20363
rhand -10.6357 0.562935
rfingers 7.12502
rthumb 15.3714 -28.8457
lclavicle 2.8625e-014 1.36167e-014
lhumerus 52.4177 -4.59242 53.3787
lradius 117.543
lwrist -0.874159
lhand -18.8809 24.0896
lfingers 7.12502
lthumb 7.42014 53.9395
rfemur -58.3355 -23.994 42.8606
rtibia 40.1265
rfoot -15.3001 -18.8262
rtoes -0.897428
lfemur -68.3323 -14.5453 1.08075
ltibia 41.4793
lfoot -6.34128 -9.68485
ltoes -20.0241
